<?xml version="1.0" standalone="no"?>
<!DOCTYPE svg PUBLIC "-//W3C//DTD SVG 20010904//EN"
 "http://www.w3.org/TR/2001/REC-SVG-20010904/DTD/svg10.dtd">
<svg version="1.0" xmlns="http://www.w3.org/2000/svg"
 width="512.000000pt" height="512.000000pt" viewBox="0 0 512.000000 512.000000"
 preserveAspectRatio="xMidYMid meet">

<g transform="translate(0.000000,512.000000) scale(0.100000,-0.100000)"
fill="#000000" stroke="none">
<path d="M501 5105 c-178 -39 -348 -172 -429 -336 -76 -154 -72 -33 -71 -1869
0 -1287 3 -1653 13 -1679 29 -81 126 -120 207 -83 24 11 249 191 501 401 l456
381 1204 0 c1345 0 1275 -3 1427 72 166 82 297 251 336 434 22 103 22 2085 0
2188 -50 239 -252 441 -491 491 -100 21 -3055 21 -3153 0z m3150 -336 c71 -33
125 -87 158 -158 l26 -56 0 -1035 0 -1035 -26 -56 c-33 -71 -87 -125 -158
-158 l-56 -26 -1260 -5 c-1153 -5 -1263 -6 -1290 -22 -16 -9 -184 -145 -372
-302 -189 -157 -345 -286 -348 -286 -3 0 -5 649 -5 1443 0 1583 -3 1493 60
1589 36 54 91 95 163 119 49 18 129 18 1552 16 l1500 -2 56 -26z"/>
<path d="M4415 3826 c-17 -7 -43 -28 -58 -45 -86 -102 -10 -261 126 -261 92 0
206 -62 257 -138 63 -96 60 -13 58 -1516 l-3 -1368 -276 220 c-152 120 -285
223 -295 228 -11 5 -526 11 -1199 14 l-1180 5 -56 26 c-71 34 -125 87 -157
158 -23 50 -27 73 -32 203 -5 159 -11 175 -74 222 -39 29 -133 29 -172 0 -63
-46 -69 -64 -72 -212 -4 -169 12 -253 70 -371 59 -119 160 -220 279 -279 151
-75 91 -72 1348 -72 l1124 0 371 -297 c204 -164 391 -308 416 -321 57 -30 115
-26 165 12 70 54 65 -68 65 1665 0 1748 4 1636 -72 1790 -82 166 -251 297
-434 336 -85 18 -159 18 -199 1z"/>
</g>
</svg>
