<?xml version="1.0" standalone="no"?>
<!DOCTYPE svg PUBLIC "-//W3C//DTD SVG 20010904//EN"
 "http://www.w3.org/TR/2001/REC-SVG-20010904/DTD/svg10.dtd">
<svg version="1.0" xmlns="http://www.w3.org/2000/svg"
 width="512.000000pt" height="512.000000pt" viewBox="0 0 512.000000 512.000000"
 preserveAspectRatio="xMidYMid meet">

<g transform="translate(0.000000,512.000000) scale(0.100000,-0.100000)"
fill="#000000" stroke="none">
<path d="M1395 4734 c-225 -27 -371 -70 -558 -166 -507 -260 -835 -805 -837
-1389 -1 -523 482 -1197 1422 -1981 406 -340 1072 -818 1138 -818 66 0 743
487 1145 823 935 783 1416 1454 1415 1976 -2 584 -330 1129 -837 1389 -210
108 -388 156 -623 169 -366 19 -747 -111 -1030 -352 -36 -30 -67 -55 -70 -55
-3 0 -34 25 -70 55 -268 228 -629 359 -975 354 -49 -1 -103 -4 -120 -5z m286
-205 c303 -39 544 -159 781 -387 50 -48 61 -55 98 -55 37 0 48 7 98 55 248
239 493 356 815 390 501 52 989 -203 1259 -657 114 -192 187 -461 188 -693 1
-280 -187 -651 -529 -1042 -186 -214 -545 -559 -821 -789 -233 -195 -666 -520
-919 -691 l-91 -61 -92 63 c-275 184 -715 516 -958 722 -255 215 -609 558
-781 756 -341 390 -530 763 -529 1043 1 231 74 501 188 692 277 464 782 720
1293 654z"/>
<path d="M3454 4181 c-65 -28 -84 -113 -35 -162 63 -63 171 -16 171 75 0 56
-83 109 -136 87z"/>
<path d="M3817 4149 c-28 -17 -49 -68 -43 -104 8 -42 29 -60 104 -89 99 -39
171 -85 249 -159 154 -146 231 -311 253 -542 8 -83 11 -92 40 -117 42 -39 92
-38 131 1 27 28 29 34 29 108 -1 266 -148 569 -358 736 -162 129 -341 203
-405 166z"/>
</g>
</svg>
