<?xml version="1.0" standalone="no"?>
<!DOCTYPE svg PUBLIC "-//W3C//DTD SVG 20010904//EN"
 "http://www.w3.org/TR/2001/REC-SVG-20010904/DTD/svg10.dtd">
<svg version="1.0" xmlns="http://www.w3.org/2000/svg"
 width="512.000000pt" height="512.000000pt" viewBox="0 0 512.000000 512.000000"
 preserveAspectRatio="xMidYMid meet">

<g transform="translate(0.000000,512.000000) scale(0.100000,-0.100000)"
fill="#000000" stroke="none">
<path d="M2485 5113 c-92 -11 -190 -39 -263 -75 -82 -40 -100 -57 -1095 -1020
-557 -539 -1031 -1000 -1054 -1026 -119 -130 -83 -327 74 -406 73 -37 180 -30
248 17 17 12 482 459 1033 992 551 534 1018 979 1039 990 58 30 148 27 199 -6
21 -15 486 -460 1033 -990 547 -530 1009 -974 1026 -986 124 -85 297 -34 371
107 29 55 26 163 -6 223 -34 64 -2060 2026 -2143 2076 -145 86 -310 123 -462
104z"/>
<path d="M659 2273 c-60 -31 -112 -92 -129 -151 -6 -24 -10 -283 -10 -729 0
-745 2 -775 53 -903 92 -225 278 -392 522 -466 56 -17 143 -19 1425 -22 1006
-2 1385 0 1440 8 265 42 497 224 596 468 61 152 59 121 59 902 0 796 3 760
-69 838 -54 60 -104 82 -186 82 -107 0 -189 -53 -234 -150 -21 -44 -21 -62
-26 -755 l-5 -710 -28 -48 c-35 -60 -93 -102 -158 -116 -34 -8 -462 -11 -1348
-11 -1444 0 -1364 -4 -1442 67 -22 20 -50 55 -62 77 -22 41 -22 45 -27 756 -5
709 -5 715 -27 755 -66 124 -218 171 -344 108z"/>
</g>
</svg>
