<?xml version="1.0" standalone="no"?>
<!DOCTYPE svg PUBLIC "-//W3C//DTD SVG 20010904//EN"
 "http://www.w3.org/TR/2001/REC-SVG-20010904/DTD/svg10.dtd">
<svg version="1.0" xmlns="http://www.w3.org/2000/svg"
 width="512.000000pt" height="512.000000pt" viewBox="0 0 512.000000 512.000000"
 preserveAspectRatio="xMidYMid meet">

<g transform="translate(0.000000,512.000000) scale(0.100000,-0.100000)"
fill="#000000" stroke="none">
<path d="M1830 5114 c-514 -63 -902 -246 -1240 -584 -304 -304 -491 -669 -567
-1105 -24 -139 -24 -471 0 -610 76 -436 263 -801 567 -1105 304 -304 669 -491
1105 -567 139 -24 471 -24 610 0 275 48 530 142 733 270 l64 40 691 -691 c746
-744 729 -729 861 -753 265 -49 506 192 457 457 -24 132 -9 115 -753 861
l-691 691 40 64 c128 203 222 458 270 733 24 139 24 471 0 610 -76 436 -263
801 -567 1105 -302 303 -674 494 -1100 565 -91 16 -407 28 -480 19z m431 -214
c722 -109 1309 -641 1483 -1345 34 -138 45 -224 52 -383 22 -516 -206 -1046
-601 -1394 -452 -399 -1047 -546 -1630 -402 -319 79 -600 239 -835 474 -277
277 -448 617 -511 1015 -16 103 -16 407 0 510 63 398 234 738 511 1015 308
308 676 478 1135 524 66 7 316 -2 396 -14z m1433 -3189 l139 -140 -69 -73
c-38 -41 -102 -105 -142 -143 l-73 -69 -141 141 -140 141 138 140 c77 77 141
141 144 141 3 1 68 -62 144 -138z m1194 -1205 c23 -33 27 -50 27 -106 0 -54
-5 -73 -25 -103 -53 -78 -140 -111 -230 -87 -41 11 -90 57 -507 472 l-461 460
141 143 142 143 443 -442 c243 -242 455 -459 470 -480z"/>
<path d="M1834 4710 c-361 -38 -704 -202 -963 -461 -431 -431 -579 -1063 -384
-1639 80 -237 208 -442 384 -619 431 -431 1063 -579 1639 -384 237 80 442 208
619 384 431 431 579 1063 384 1639 -160 474 -529 843 -1003 1003 -220 75 -450
101 -676 77z m350 -205 c309 -41 577 -174 802 -399 550 -550 550 -1422 0
-1972 -550 -550 -1422 -550 -1972 0 -550 550 -550 1422 0 1972 315 314 734
457 1170 399z"/>
<path d="M1964 4311 c-32 -14 -64 -60 -64 -92 0 -38 44 -87 83 -93 18 -3 76
-10 129 -15 291 -32 551 -192 725 -446 12 -17 41 -71 66 -120 25 -50 54 -98
64 -106 47 -41 124 -24 148 34 17 42 8 81 -43 182 -191 381 -580 639 -997 660
-49 3 -100 1 -111 -4z"/>
<path d="M3064 3210 c-32 -13 -64 -59 -64 -91 0 -40 46 -88 91 -95 31 -5 42
-1 70 24 28 25 34 37 34 72 0 35 -6 47 -33 71 -33 29 -60 35 -98 19z"/>
</g>
</svg>
